<?xml version="1.0" encoding="iso-8859-1"?>
<!-- Uploaded to: SVG Repo, www.svgrepo.com, Generator: SVG Repo Mixer Tools -->
<svg version="1.1" id="Layer_1" xmlns="http://www.w3.org/2000/svg" xmlns:xlink="http://www.w3.org/1999/xlink" 
	 viewBox="0 0 511.999 511.999" xml:space="preserve">
<rect x="216.029" y="189.375" style="fill:#CEE8FA;" width="79.952" height="180.719"/>
<path style="fill:#2D527C;" d="M412.337,324.279c-20.362,0-37.656,13.355-43.602,31.763h-58.708v-74.168h26.176
	c7.759,0,14.051-6.29,14.051-14.051v-92.286c0-7.76-6.292-14.051-14.051-14.051c-7.759,0-14.051,6.29-14.051,14.051v78.235h-12.126
	v-64.405c0-7.76-6.292-14.051-14.051-14.051h-25.925v-37.524h1.478c28.322,0,51.364-23.042,51.364-51.364V51.362
	c0-7.76-6.292-14.051-14.051-14.051c-7.759,0-14.051,6.29-14.051,14.051V86.43c0,12.795-10.385,23.205-23.167,23.257
	c-0.032,0-0.063-0.004-0.096-0.004h-31.247c-12.738-0.104-23.073-10.489-23.073-23.252V51.362c0-12.825,10.435-23.261,23.262-23.261
	h31.058c7.759,0,14.051-6.29,14.051-14.051S279.288,0,271.529,0h-31.058c-28.322,0-51.364,23.04-51.364,51.362V86.43
	c0,11.158,3.587,21.486,9.653,29.918c-21.895,10.712-37.015,33.216-37.015,59.19v92.286c0,7.76,6.292,14.051,14.051,14.051h26.176
	v74.168h-58.708c-5.946-18.408-23.241-31.763-43.602-31.763c-25.262,0-45.814,20.552-45.814,45.814s20.552,45.815,45.814,45.815
	c20.362,0,37.656-13.355,43.602-31.764h98.683v38.438c-18.408,5.946-31.763,23.24-31.763,43.602
	c0,25.262,20.552,45.815,45.814,45.815s45.814-20.552,45.814-45.815c0-20.362-13.355-37.656-31.763-43.602v-38.438h98.683
	c5.946,18.408,23.241,31.764,43.602,31.764c25.262,0,45.814-20.552,45.814-45.815S437.6,324.279,412.337,324.279z M256.001,483.899
	c-9.767,0-17.712-7.946-17.712-17.714s7.946-17.714,17.712-17.714c9.767,0,17.712,7.946,17.712,17.714
	S265.767,483.899,256.001,483.899z M189.849,253.773v-78.235c0-20.817,16.938-37.754,37.756-37.754h12.49
	c0.126,0.001,0.252,0.01,0.378,0.01h1.478v37.524h-25.925c-7.759,0-14.051,6.29-14.051,14.051v64.405H189.849z M99.663,387.806
	c-9.767,0-17.712-7.946-17.712-17.714c0-9.767,7.946-17.712,17.712-17.712c9.768,0,17.714,7.946,17.714,17.712
	C117.378,379.861,109.431,387.806,99.663,387.806z M230.076,356.042V203.418h11.874v39.308c0,7.76,6.292,14.051,14.051,14.051
	c7.759,0,14.051-6.29,14.051-14.051v-39.308h11.874v152.625h-51.85V356.042z M412.337,387.806c-9.768,0-17.714-7.946-17.714-17.714
	c0-9.767,7.946-17.712,17.714-17.712c9.767,0,17.712,7.946,17.712,17.712C430.05,379.861,422.105,387.806,412.337,387.806z"/>
</svg>