<?xml version="1.0" encoding="iso-8859-1"?>
<!-- Uploaded to: SVG Repo, www.svgrepo.com, Generator: SVG Repo Mixer Tools -->
<svg height="800px" width="800px" version="1.1" id="Layer_1" xmlns="http://www.w3.org/2000/svg" xmlns:xlink="http://www.w3.org/1999/xlink" 
	 viewBox="0 0 512 512" xml:space="preserve">
<path style="fill:#FA6E51;" d="M512,256.006C512,397.402,397.394,512.004,256.004,512C114.606,512.004,0,397.402,0,256.006
	C-0.007,114.61,114.606,0,256.004,0C397.394,0,512,114.614,512,256.006z"/>
<path style="fill:#E8573F;" d="M510.218,285.803c-0.011-0.007-0.016-0.019-0.028-0.028c-0.463-0.657-157.825-158.02-158.483-158.482
	c-1.254-1.786-3.227-3.027-5.574-3.027H210.586c-0.338-0.476-30.745-30.75-31.273-31.197l-0.161-0.254
	c-1.273-2.004-3.481-3.216-5.854-3.216H96.533c-3.828,0-6.933,3.102-6.933,6.933V325.13c0,0.569,0.071,1.131,0.207,1.679
	c1.568,6.275,4.823,11.633,9.163,15.882c0.524,0.591,167.93,167.941,168.493,168.493c0.161,0.181,0.345,0.341,0.514,0.514
	C393.833,505.905,495.901,409.253,510.218,285.803z"/>
<g>
	<path style="fill:#F4F6F9;" d="M421.668,412.366l-83.2-166.4c-2.35-4.699-10.054-4.699-12.404,0l-83.2,166.4
		c-1.073,2.146-0.958,4.699,0.305,6.743c1.263,2.045,3.493,3.291,5.898,3.291h166.4c2.403,0,4.635-1.246,5.898-3.291
		C422.627,417.065,422.741,414.512,421.668,412.366z M260.286,408.533l71.981-143.962l71.981,143.962H260.286z"/>
	<path style="fill:#F4F6F9;" d="M325.333,317.14v45.378c0,3.833,3.104,6.933,6.933,6.933c3.829,0,6.933-3.101,6.933-6.933V317.14
		c0-3.833-3.104-6.933-6.933-6.933C328.437,310.207,325.333,313.309,325.333,317.14z"/>
	<path style="fill:#F4F6F9;" d="M332.267,378.275c-3.837,0-6.933,3.116-6.933,6.94c0,3.836,3.097,6.927,6.933,6.927
		c3.83,0,6.933-3.091,6.933-6.927C339.2,381.391,336.097,378.275,332.267,378.275z"/>
	<path style="fill:#F4F6F9;" d="M221.333,339.2h-68.669c2.755-3.602,4.897-7.73,6.063-12.39c0.135-0.548,0.207-1.11,0.207-1.679
		V172.8h208v48.533c0,3.833,3.104,6.933,6.933,6.933c3.829,0,6.933-3.101,6.933-6.933v-55.467c0-3.833-3.104-6.933-6.933-6.933
		h-20.801V131.2c0-3.833-3.104-6.933-6.933-6.933H199.121l-19.97-31.451c-1.273-2.004-3.481-3.216-5.854-3.216H96.533
		c-3.829,0-6.933,3.101-6.933,6.933v228.597c0,0.569,0.071,1.131,0.207,1.679c3.765,15.062,16.852,25.25,32.813,25.925
		c0.542,0.135,1.063,0.332,1.647,0.332h97.067c3.829,0,6.933-3.101,6.933-6.933S225.162,339.2,221.333,339.2z M103.467,324.223
		V103.467h66.022l19.97,31.451c1.273,2.004,3.481,3.216,5.854,3.216H339.2v20.8H152c-3.829,0-6.933,3.101-6.933,6.933v158.356
		c-3.129,10.887-13.082,14.774-20.8,14.774S106.594,335.11,103.467,324.223z"/>
</g>
</svg>